/* XPM */
static char *enemy21683883726[] = {
/* columns rows colors chars-per-pixel */
"32 32 8 1 ",
"  c None",
". c black",
"X c #2D2924",
"o c #562B1C",
"O c #544D43",
"+ c #84442E",
"@ c #BD6B4F",
"# c #817667",
/* pixels */
"                                ",
"          ...     .             ",
"         .O##.   .#.            ",
"        .OOXO#. .O#.            ",
"        .O@XXO#..O#.            ",
"       .OO@@XXOO#OO.            ",
"       .OO@@XXO###O.            ",
"        .XOXXOO####.            ",
"         .XXXX..###O.           ",
"          .OXX..O###. ..        ",
"          .OOXXXOOO##...        ",
"          .XXOXXXXXOOO..        ",
"          .XXXXOXXXXXO.         ",
"           .XXXOOOOX..          ",
"           .XXXOOOOX.           ",
"           .XXXO#XO#X.          ",
"           .XXXO#XO#X.          ",
"          ..XXXXOXOOX.          ",
"         .@+XXXXXXOXX.          ",
"        .+ooXXXXXOOO.           ",
"       .@@+oXXXXXXO#.           ",
"      .++o+oXXXXXXO#.           ",
"      .@++ooX#XXXXO.......      ",
"     .@@+o.XX##XXXO@+@+@@+..    ",
"     .++o.XXOO#OX@+@+@..@+@+.   ",
"     .@@o.XXOOO@+@+OXO. ...@@.  ",
"     .++..XXX+@@+.XXXX.    ..   ",
"     .@@@.@+@+@##.....          ",
"      .@+@@+@XOXO.              ",
"       .+@@+..XXX.              ",
"        ....  ...               ",
"                                "
};
