/* XPM */
static char *hero_barbarian1683883726[] = {
/* columns rows colors chars-per-pixel */
"32 32 10 1 ",
"  c None",
". c black",
"X c #222034",
"o c #7C421C",
"O c #F66D1E",
"+ c #FFFF37",
"@ c #FECD8E",
"# c #ABC4FF",
"$ c #CBDBFC",
"% c #DAE8FF",
/* pixels */
"                                ",
"                                ",
"                                ",
"                                ",
"         ............           ",
"        ..............          ",
"       ................       . ",
"       ................  .   .%X",
"      ................. .%. .%#X",
"      ................. .%#.%##X",
"      ................. .%#####X",
"      .......@@@@@@@@@. .%#####X",
"      ......@@@...@.... .%#####X",
"      ......@@@...@.... .$...##X",
"      ......@@@@@@@@@@.  ..o..#X",
"      ......@@@@@......   .o. . ",
"      ................    .o.   ",
"     .......o.@@@@@@@@........  ",
"    .@......oo.@@@@@@@@@@@@@@@. ",
"    .@......ooo...@@@@@@@@@@@@. ",
"    .@.......ooooo.@@@@@@@@@@@. ",
"    .@......@.ooooo.@@@@@@@@@@. ",
"    .@......@@..oooo.@........  ",
"    .@.....@@@@@..ooo.    .o.   ",
"    .@................    .o.   ",
"    .@.....++++OOO+++.    .o.   ",
"    .@.@@.............     .    ",
"    .@@@..@@@@@@@.@@@.          ",
"     ... .@@@@@...@@@.          ",
"         ......   ....          ",
"         .ooo.    .ooo.         ",
"         .oooo.   .oooo.        "
};
