/* XPM */
static char *hero_cleric1683883726[] = {
/* columns rows colors chars-per-pixel */
"32 32 13 1 ",
"  c None",
". c black",
"X c #7C421C",
"o c #B57521",
"O c #F66D1E",
"+ c #FFDC00",
"@ c #FFFF37",
"# c #9F917E",
"$ c #EBA26D",
"% c #EB3C96",
"& c #FF70DF",
"* c #2487FF",
"= c white",
/* pixels */
"                          @     ",
"                       @     @  ",
"                ++              ",
"        ........++..  @   @@  @ ",
"       .========++==.    @+@@   ",
"      .=========++===.  @+@@+@  ",
"     .========oo++ooo#. @+@@+@ @",
"     .======OO++&%+++#. @+@@+@  ",
"     .=====O++++%%+++#. @+@@+@  ",
"     .====o$$$$$$$$$$#. @+@@+@  ",
"     .====o$$$$$$$$$$#. @+@@+@ @",
"     .====o$$$$$$$$$$#.  @+@@   ",
"     .====o$$$...$...#.@  +@    ",
"     .====o$$$...$...#.   +@ @  ",
"     .====o$$$$$$$$$$#. @ +@    ",
"     .====o$$$$$......    +@    ",
"     .=====..........     +@    ",
"      .===+====****+*........   ",
"     .$$===+===***+**$$$$$$$$.  ",
"    .$$$$===+==**+**$$$$$$$$$.  ",
"    .$$$$====+=*+***$$$$$$$$$.  ",
"    .$$$.=====++****$........   ",
"    .$$$.====++++***.     +@    ",
"    .$$$.XXXX++++XXX.     +@    ",
"    .$$$.XXXXX++XXXX.           ",
"    .$$$.======*****.           ",
"    .$$$.======*****.           ",
"     ....======*****.           ",
"        .======*****.           ",
"        .======*****.           ",
"        .$$$.    .$$$.          ",
"        .$$$$.   .$$$$.         "
};
