/* XPM */
static char *hero_rogue1683883727[] = {
/* columns rows colors chars-per-pixel */
"32 32 11 1 ",
"  c None",
". c black",
"X c #7C421C",
"o c #6D0750",
"O c #584545",
"+ c #AD0B6F",
"@ c #9F917E",
"# c #004DCA",
"$ c #2487FF",
"% c #9DB3BF",
"& c white",
/* pixels */
"                                ",
"                                ",
"                                ",
"         ...........            ",
"        .+++++++++++.           ",
"       .+++++++++++++.          ",
"      .+++++++++++++++.         ",
"      .++++++++++++++++.        ",
"      .++++++++++++++++.        ",
"      .++++++++++++++++.        ",
"      .+++++++OOOOOOOOo.        ",
"      .++++++O@@@@@@@@o.        ",
"      .+++++O@@...@...o.        ",
"   ....+++++O@@...@...o+..      ",
"  .@@@.&&&++O@@@$$$$$$o+@@.&&&  ",
"  .@@@.&&&&++$$$$$$$$$o+@@.&&&& ",
"  .@@@.%%%%%#########+++@@.%%%%%",
"  .@@@@.+++++++++++++++.@@.     ",
"  .@@@@+++++++++++++++++@@.     ",
"  .@@@@+++++X$$$$$$$$+++@@.     ",
"   .@@@++##XXXX$$$$$$$@@@.      ",
"    ......#XXXXXX$$$$$....      ",
"      +++.#$$XXXXXX$$.o         ",
"      ++o.#$$$$XXXXXX.o+        ",
"     ++oo.#$$$$$$XXXX.o+        ",
"     ++oo.#$$$$$$$$XX.oo+       ",
"    ++ooo.o++++++++++.oo+       ",
"    ++ooo.o++++++.+++.ooo+      ",
"    +oooo.o++++...+++.ooo++     ",
"   ++oooo......ooo....oooo+     ",
"   ++oooo.....oooo.....ooo++    ",
"    ++ooo......ooo......o++     "
};
