/* XPM */
static char *hero_wizzard1683883727[] = {
/* columns rows colors chars-per-pixel */
"32 32 11 1 ",
"  c None",
". c black",
"X c #7C421C",
"o c #A90909",
"O c #F02929",
"+ c #8F563B",
"@ c #FF7079",
"# c #FFFF37",
"$ c #2487FF",
"% c #FF94B3",
"& c #FECD8E",
/* pixels */
"        ......                  ",
"       .%%%%%%...               ",
"        .%%%##%%%..             ",
"         .%..#%%%%%..           ",
"          .%%%%%%%#%%.          ",
"         .%%%%%%%###%%.         ",
"        .%%#%%%%%%#%%%%.        ",
"       .%%###%%%%%%%%%%.        ",
"   ......%%#%%%%%%%%%%......    ",
"  .%%%%%%%%%%%%%%%%%%%%%%%%%.   ",
"   ..........................   ",
"        .&&&&&&&&&&&&&.   ..+.  ",
"        .&&&&&&...&....  .XX@O. ",
"        .&&&&&&...&....  .X@Ooo.",
"        .&&&&&&&&&&&&&.  .XXooo.",
"        .&&&&&&&&......   .XXo. ",
"         .............     .XX. ",
"        .$$$.&&&&&&&.$.    .XX. ",
"  ......$$$$$.&&&&&.$$$.....XX. ",
" .$$$$$$$$$$$$.&&&.$$$$$$$.$&&. ",
".&&$$$$$$$$$$$$...$$$$$$$$.$&&. ",
".&&$$$$$$$$$$$$$$.$$..$..$$.XX. ",
" .$$..$.$$$.$$$$$.$$$$.  ...XX. ",
" .$.  .$$$.$$$$$$.$$$$.    .XX. ",
"  .    .$.$$$$$$$.$$$$.    .XX. ",
"        .#########.###.    .XX. ",
"        .$$$$$$$$$.$$$.    .XX. ",
"        .$$$$$$.$$$.$$.    .XX. ",
"       .$$$$$$$.$$$.$$$.   .XX. ",
"      .$$.$$$$$$.$$$.$$.   .XX. ",
"     .$$$.$$$$$$.$$$.$$$.  .XX. ",
"    .$$$.$$$$$$$$$$$.$$$.  .XX. "
};
