/* XPM */
static char *hero_necromant1683883727[] = {
/* columns rows colors chars-per-pixel */
"32 32 9 1 ",
"  c None",
". c black",
"X c #983420",
"o c #004DCA",
"O c #00CDF9",
"+ c #7AF2FF",
"@ c #FECD8E",
"# c #CFFFFC",
"$ c white",
/* pixels */
"                                ",
"                                ",
"                                ",
"                                ",
"          ...........           ",
"         .oooooooooooo          ",
"        .ooooooo....ooo         ",
"       .oooooo..oooooooo        ",
"    O  .oooooooooooooooo        ",
"   OOO .oooooooooooooooo        ",
"  OOOOO.oo.ooooooooooooo        ",
"  O+++O.oo.ooooooooooooo   #### ",
" O+$$$+Ooo.ooooooooooooo  # $$ $",
"  +...+.ooo.ooo...@...oo  #$#$$$",
"  .@@@..ooo.ooo@@@@@@@o.  #$$$$$",
"  .@@@..ooo.ooo@@.....o    $XX$ ",
"  .@@@..ooo.ooo.......o     XX  ",
"  .@@oooooo.oooooooooooooooo..  ",
"  .@oooooooooooooooooooooooo@@. ",
"  .@oooooooooooooooooooooooo@@. ",
"   .oooooooooooooooooooooooo@@. ",
"    ooo.ooooooooooo....ooooo..  ",
"    ooo.oooooo.ooooooo ..oooXX  ",
"    o..o.ooooo.ooooooo   ..oXX  ",
"    . oo.o.ooo.oooo.oo     .XX  ",
"       .oo.oooo.ooo.oo      XX  ",
"       .oo.oooo.oooo.o      XX  ",
"       .o.oooooo.ooo.oo     XX  ",
"      .oo.oooooo.ooo.oo     XX  ",
"      .o.ooooooooooooooo    XX  ",
"     .oo.o....ooooo....oo   XX  ",
"   ..oo.oo.....oooo.....ooo XX  "
};
