/* XPM */
static char *hero_monk1683883726[] = {
/* columns rows colors chars-per-pixel */
"32 32 8 1 ",
"  c None",
". c black",
"X c #983420",
"o c #FFFF37",
"O c #EBA26D",
"+ c #00CDF9",
"@ c #FECD8E",
"# c white",
/* pixels */
"                                ",
"                                ",
"                                ",
"                                ",
"         ............           ",
"        .@@@@@@@@@@@@.          ",
"       .@@@@@@@@@@@@@@.         ",
"       .++++++++++++++.         ",
"       .++++++++++++++.         ",
"       .@@@@@@@@@@@@@@.         ",
"       .@@@@@@@@@@@@@@.         ",
"       .@@@@@@@@@@@@@@.         ",
"       .@@@@@@@...@....         ",
"   ... .@@@@@@@...@....         ",
"  .@@@..@@@@@@@@@@@@@@.         ",
"  .@@@..@@@@@@@@@......         ",
"  .XXX. ..............          ",
"  .@@@@.@@@@@@@@@@@@@@........  ",
"  .@@@@@@@@@@@@@@@@@@@@@@@@X@@. ",
"  .@@@@@@@@@@@@O@@@@O@@@@@@X@@. ",
"   .@@@@@@@@@@@O@@@@O@@@@@@X@@. ",
"    ......@@@OO@@@OO@@........  ",
"         .@@@@@@@@@@@.          ",
"         .@@@@O@@@O@@.          ",
"         .@@@OO@@OO@@.          ",
"         .XXXXXXXXXXX.          ",
"         .XXXXXXXXXXX.          ",
"         .ooooooo.ooo.          ",
"         .ooooo...ooo.          ",
"         .ooo..   .oo.          ",
"         .###.    .###.         ",
"         .XXXX.   .XXXX.        "
};
