/* XPM */
static char *hero_ranger1683883727[] = {
/* columns rows colors chars-per-pixel */
"32 32 9 1 ",
"  c None",
". c black",
"X c #1D3B7C",
"o c #F02929",
"O c #F66D1E",
"+ c #2F8735",
"@ c #FFAE2B",
"# c #FFFF37",
"$ c #FECD8E",
/* pixels */
"        ......                  ",
"       .++++++...               ",
"        .++++++++..             ",
"         .+..++++++..           ",
"          .++++++++++.          ",
"         .++++++++++++.         ",
"        .++++++++++++++.        ",
"       .+++++++++++++++.        ",
"       .................        ",
"      .+++++++++++++++++..      ",
"       ..................O.     ",
"        .$$$$$$$$$$$$$. ..O.    ",
"        .$$$$$$...$....  ..O.   ",
"        .$$$$$$...$....  . .O.  ",
"        .$$$$$$$$$$$$$.  .  .O. ",
"        .$$$$$$$$......  .  .O. ",
"         .............   .   .O.",
"       ..++++.$$$$$.++.. .   .O.",
"      .$$+++++.$$$.+++$$.....$$.",
"     .$$$++++++...++++$$$.$$$$$.",
"     .$$$.++++++++++++$$$.$$$$$.",
"     .$$$.++++++++++++..$.$$$.O.",
"     .$$$.+++++++++++.  ......O.",
"     .$$$.+++++++++++.   .   .O.",
"     .$$$.............   .   .O.",
"     .$$$.#####@@@###.   .  .O. ",
"     .$$$.............   .  .O. ",
"      ....XXXXXXX.XXX.   . .O.  ",
"         .XXXXX...XXX.   ..O.   ",
"         ......   ....  ..O.    ",
"         .ooo.    .ooo. OO.     ",
"         .oooo.   .oooo...      "
};
