/* XPM */
static char *hero_knight1683883726[] = {
/* columns rows colors chars-per-pixel */
"32 32 11 1 ",
"  c None",
". c black",
"X c #222034",
"o c #AC3232",
"O c #F02929",
"+ c #FF7079",
"@ c #4CBD56",
"# c #FBF236",
"$ c #FFFF37",
"% c #ABC4FF",
"& c #DAE8FF",
/* pixels */
"        ..............          ",
"       .+++OOOOOOOOOOOX         ",
"      .+++O+OOOOOOOOOOO.        ",
"      .++O+OOOOOOOOOOOO.        ",
"      .+O+OOOOOOOOOOOOO.        ",
"      .O+OOOOOOOOOOOOOO.        ",
"      .+OOOXXXXXXXXXXOO. .      ",
"      .O+OXXXXXXXXXXXXO. ..     ",
"      .+OOXXXXXXXXXXXXO. .&X    ",
"      .O+OOXXXXXXXXXXOO. .&%.   ",
"      .+OOOOOOXXXXOOOOO. .&%.   ",
"      .O+OOOOOXXXXOOOOO. .&%.   ",
"      .+OOOOOOXXXXOOOOO. .&%.   ",
"      .O+OOOOOXXXXOOOOO. .&%.   ",
"      .OOOOOOOOXXOOOOOO. .&%.   ",
"............OOOOOOOOOOO. .&%.   ",
".@@@@@@@@@@............  .&%.   ",
".@@@$$@@$@@.+O+OOOOOOO......... ",
".@@$$$$$$$@.O+OOOOOOOOO.O+OOO.  ",
".@$$@@$$@@@.+OOOOOOOOOO.+OOOO.  ",
".@$@@@@$@@@.O+OOOOOOOOO.OOOOO.  ",
".@@@@@@$@@@.+OOOOOOOOOO.+OOOO.  ",
".@@@@@#@@@@............ .....   ",
" .@@@#@@@@.oooooooooo.          ",
"  .@@@@@@.ooooooooooo.          ",
"   .@@@@..............          ",
"    ....+OOO.....+OOO.          ",
"      ..+OOO.    .+OO.          ",
"       .....     .....          ",
"       .+OO.     .+OO.          ",
"       .+OOO.    .+OOO.         ",
"       .+OOO.    .+OOO.         "
};
