/* XPM */
static char *hero_warrior1683883727[] = {
/* columns rows colors chars-per-pixel */
"32 32 13 1 ",
"  c None",
". c black",
"X c #222034",
"o c #B57521",
"O c #F66D1E",
"+ c #FFFF37",
"@ c #626F8A",
"# c #6565B3",
"$ c #9DB3BF",
"% c #FECD8E",
"& c #ABC4FF",
"* c #DAE8FF",
"= c white",
/* pixels */
"                                ",
"                                ",
"          ...........           ",
"         .$$$$$$$$$$$X          ",
"        .$$$$$$$$$$$$$.         ",
"        .$$$$$$$$$$$$$.         ",
"        ...............         ",
"       .$$$$$$$$$$$$$$$.        ",
"       .$$@$@$@$@$@$@$$.        ",
"       .$$$$$$$$$$$$$$$.   ..   ",
"       ................   .=&.  ",
"       .$$$$.%%%%%%%%%.   .*&.  ",
"       .$$$$.%%...%....   .*&.  ",
"       .$$$$.%%...%....   .*&.  ",
"        ....%%%%%%%%%%.   .*&.  ",
"        .%%%%%%%%......   .*&.  ",
"         .............    .*&.  ",
"       ..oooo.%%%%%.oo..  .*&.  ",
"      .%%ooooo.%%%.ooo%%......  ",
"     .%%%oooooo...oooo%%%%%%%%. ",
"    .....%oooooooooooo%%%%%%.%. ",
"   .OOOO+.oooooooooooo..%%%.%%. ",
"  .OOOO+++.oooooooooo.  ......  ",
"  .OOO+++O.oooooooooo.     ..   ",
"  .OO+++OO............     ..   ",
"  .O+++OOO.++++OOO+++.          ",
"  .+++OOOO............          ",
"   .+OOOO.#######.###.          ",
"    ......#####...###.          ",
"         ......   ....          ",
"         .ooo.    .ooo.         ",
"         .oooo.   .oooo.        "
};
