/* XPM */
static char *human_vampire1683883728[] = {
/* columns rows colors chars-per-pixel */
"32 32 6 1 ",
"  c None",
". c black",
"X c #61000F",
"o c #A90909",
"O c #F02929",
"+ c white",
/* pixels */
"                                ",
"                                ",
"                                ",
"                                ",
"                                ",
"                                ",
"          ...........           ",
"         .............          ",
"        ...............         ",
"        ...............         ",
"        .....+.+.+.+.+.         ",
"        ....++++++++++.         ",
"        ....+++.OO+.OO.         ",
"        ....+++...+....         ",
"        ....++++++++++.         ",
"        ....+++++OOO++.         ",
"        ...............         ",
"        .oooX++++++Xooo.        ",
"      ..ooooX+++.++Xoooo......  ",
"     .oooooooX++.+Xooooooooo++. ",
"    .ooooooooX++.+Xooooooooo.+. ",
"    .oooo.ooooX.+Xoooo..ooo.++. ",
"    .ooo. .oooX++Xooo.  ......  ",
"    .+++. .oooXOOXooo.          ",
"    .+++. .oooXXXXooo.          ",
"     ... .XXXXXXOOXXXX.         ",
"         .OOOOOXXXXOOO.         ",
"         .XXXXXXOOXXXX.         ",
"        .ooooooXXXXoooo.        ",
"        .ooooooXOOXoooo.        ",
"       .ooooooXXXXoooooo.       ",
"       .ooooooXOOXoooooo.       "
};
