/* XPM */
static char *human_bandit_captain1683883727[] = {
/* columns rows colors chars-per-pixel */
"32 32 11 1 ",
"  c None",
". c black",
"X c #3F2C29",
"o c #A90909",
"O c #F66D1E",
"+ c #2F8735",
"@ c #FFFF37",
"# c #FECD8E",
"$ c #ABC4FF",
"% c #DAE8FF",
"& c white",
/* pixels */
"                                ",
"                                ",
"                                ",
"                                ",
"                                ",
"                                ",
"        . . . . . . . .         ",
"        ...............         ",
"        ...............         ",
"        ...............    ..   ",
"        .#############.   .&$.  ",
"        .#############.   .%$.  ",
"        .######...#....   .%$.  ",
"        .######...#....   .%$.  ",
"        .#############.   .%$.  ",
"        .oooooooooooooo   .%$.  ",
"         ....oooooooooo   .%$.  ",
"        .++++.#####.ooo.  .%$.  ",
"      ..#+++++.###.++oo#......  ",
"     .###++++++...++++o#######. ",
"    .#####++++++++++++######.#. ",
"    .####.++++++++++++..###.##. ",
"    .###. .++++++++++.  ......  ",
"    .###. .++++++++++.     ..   ",
"    .###. ............     ..   ",
"     ...  .@@@@OOO@@@.          ",
"          ............          ",
"          .++++++.+++.          ",
"          .+++++..+++.          ",
"          ......  ....          ",
"          .XXX.   .XXX.         ",
"          .XXXX.  .XXXX.        "
};
