/* XPM */
static char *human_mummy1683883727[] = {
/* columns rows colors chars-per-pixel */
"32 32 5 1 ",
"  c None",
". c black",
"X c #E7B233",
"o c #9BF046",
"O c #FFFBC0",
/* pixels */
"                                ",
"                                ",
"                                ",
"                                ",
"                                ",
"                                ",
"                                ",
"         .............          ",
"        .OOOOOOOOOOOOO.         ",
"        .OOOOOOXXXXXXX.         ",
"        .XXXXXXOOOOOOO.         ",
"        .OOOOOOOOOOOOO.         ",
"        .XXoooo...o....         ",
"        .OOXXXo...o....         ",
"        .OOOOOXXOOOOOX.         ",
"        .XXOOOOOOOOOOX.         ",
"         .OXXXXXOOOXXO.         ",
"        .OOOOOOOXXXOOXO......   ",
"        .XXX...OXOOOXOOOXOXOO.  ",
"        .OOOXOO.XXXXOOOXOOXOXO. ",
"        .OOXOOXO.OOOOO......OX. ",
"         .....OO.OOXXX.     .O. ",
"          .XOO.O.XXOO.       .  ",
"          .OXXO.OOOOO.          ",
"          .OOOOOOXXXX.          ",
"          .XOOOXXOOOO.          ",
"          .OXXXOOOOOO.          ",
"          .OOOOXOOXXX.          ",
"          .OOOOO..OOO.          ",
"          .OXXO.  .XX.          ",
"          .XOO.   .OOO.         ",
"          .OOOO.  .OOOO.        "
};
