/* XPM */
static char *human_zombie1683883728[] = {
/* columns rows colors chars-per-pixel */
"32 32 5 1 ",
"  c None",
". c black",
"X c #BC4D59",
"o c #9BF046",
"O c #004DCA",
/* pixels */
"                                ",
"                                ",
"                                ",
"                                ",
"                                ",
"                                ",
"                                ",
"         .............          ",
"        .ooooooooooooo.         ",
"        .ooooooooooooo.         ",
"        .ooooooooooooo.         ",
"        .ooooooooooooo.         ",
"        .oooooo...o....         ",
"        .oooooo...o....         ",
"        .ooooooooooooo.         ",
"        .ooooooooo..oo.         ",
"         .ooooooo.oo.o.         ",
"        .oOOOOOOOOOOOoo......   ",
"        .ooo...OOOOOOOooooooo.  ",
"        .oooooo.OOOOOOoooooooo. ",
"        .ooooooo.OOOOO......oo. ",
"         .....oo.OOOOO.     .o. ",
"          .OOO.o.OOOO.       .  ",
"          .OOOO.OOOOO.          ",
"          .XXXXOOOXXX.          ",
"          .XXXXXOXXXX.          ",
"          .XXXXXXXXXX.          ",
"          .XXXXXXXXXX.          ",
"          .XXXXX..XXX.          ",
"          .oooo.  .XX.          ",
"          .ooo.   .XXX.         ",
"          .oooo.  .oooo.        "
};
