/* XPM */
static char *human_bandit1683883728[] = {
/* columns rows colors chars-per-pixel */
"32 32 12 1 ",
"  c None",
". c black",
"X c #3F2C29",
"o c #F02929",
"O c #B57521",
"+ c #F66D1E",
"@ c #2F8735",
"# c #FFFF37",
"$ c #FECD8E",
"% c #ABC4FF",
"& c #DAE8FF",
"* c white",
/* pixels */
"                                ",
"                                ",
"                                ",
"                                ",
"                                ",
"                                ",
"                                ",
"         .............          ",
"        ...............         ",
"        ...............    ..   ",
"        .$$$$$$$$$$$$$.   .*%.  ",
"        .$$$$$$$o$$$$$.   .&%.  ",
"        .$$$$$$...$....   .&%.  ",
"        .$$$$$$...$....   .&%.  ",
"        .$$$$$$$o$$$$$.   .&%.  ",
"        .@@@@@@@@@@@@@@   .&%.  ",
"         ....@@@@@@@@@@   .&%.  ",
"        .OOOO.$$$$$.@@@.  .&%.  ",
"      ..$OOOOO.$$$.OO@@$......  ",
"     .$$$OOOOOO...OOOO@$$$$$$$. ",
"    .$$$$$OOOOOOOOOOOO$$$$$$.$. ",
"    .$$$$.OOOOOOOOOOOO..$$$.$$. ",
"    .$$$. .OOOOOOOOOO.  ......  ",
"    .$$$. .OOOOOOOOOO.     ..   ",
"    .$$$. ............     ..   ",
"     ...  .####+++###.          ",
"          ............          ",
"          .OOOOOO.OOO.          ",
"          .OOOOO..OOO.          ",
"          ......  ....          ",
"          .XXX.   .XXX.         ",
"          .XXXX.  .XXXX.        "
};
