/* XPM */
static char *monster_water_elemental1683883732[] = {
/* columns rows colors chars-per-pixel */
"32 32 7 1 ",
"  c None",
". c black",
"X c #FFAE2B",
"o c #FFFF37",
"O c #2487FF",
"+ c #00CDF9",
"@ c #7AF2FF",
/* pixels */
"                                ",
"                  oo            ",
"                  oo            ",
"                  oo            ",
"         OOOOOOOOOooOO          ",
"        O+@@@@@@@@oo@+O         ",
"        ooooooooooooooX         ",
"        O@++++++++++++O         ",
"        O@++++++++++++O         ",
"        O@+++++...+...O         ",
"        O@+++++...+...O         ",
"        O@++++++++++++O         ",
"       OO+++++++++++++OO        ",
"      O++OOOOOOOOOOOOO++O       ",
"     O++++++++++O++++++++O      ",
"    O++++++++++O@+++++++++O     ",
"    O@++++OOO+O@++OOO+++++O     ",
"    O@+++O  OO+++O+O O++++O     ",
"    O@+++O   O++O@+O O@+++O     ",
"    O@+++O   O+O@++O O@+++O     ",
"    O@+++O   OO@+++O O@+++O     ",
"    oooooX  O@@++OO  oooooX     ",
"    oooooX  O+++O+O  oooooX     ",
"    O@+++O  O++O@+O  O@+++O     ",
"    O++++O  O+O@++O  O++++O     ",
"     OOOOO   O@+++OO OOOOO      ",
"            O@+++O++O           ",
"           O@+++O@+++O          ",
"          O@+++O@+++OO          ",
"         O@+++O@+++O++O         ",
"        O@+++O@+++O@+++O        ",
"      OO++++O++++O++++++OO      "
};
