/* XPM */
static char *monster_tentacle1683883731[] = {
/* columns rows colors chars-per-pixel */
"32 32 6 1 ",
"  c None",
". c black",
"X c #AD0B6F",
"o c #EB3C96",
"O c #FF70DF",
"+ c #EBFF8B",
/* pixels */
"                                ",
"                                ",
"                                ",
"                                ",
"                                ",
"                 ...            ",
"                .Oo+.           ",
"               .Oo++.           ",
"              .Oo+++.           ",
"             .OX+++.            ",
"            .OX+o+.             ",
"           .Ooooo.              ",
"          .Ooo++.               ",
"         .Ooo++.                ",
"        .OoX++.                 ",
"        .OX+o.                  ",
"        .OX+o+.                 ",
"        .Ooo+++.                ",
"         .Ooo+++.               ",
"          .Ooo+XX.              ",
"           .OoX++o.             ",
"            .OX++o+.            ",
"             .Ooo+++.           ",
"             .Oo+++++.          ",
"             .Oo+XXX++.         ",
"             .OoX+++o++.        ",
"            .OooX+++o++.        ",
"           .OoooX+++o++.        ",
"          .Oooo++ooo++.         ",
"         .Oooo+++++++.          ",
"        .Oooo+++++++.           ",
"       .Oooo+++++++.            "
};
