/* XPM */
static char *monster_baboon1683883728[] = {
/* columns rows colors chars-per-pixel */
"32 32 5 1 ",
"  c None",
". c black",
"X c #983420",
"o c #CC6C42",
"O c #EBA26D",
/* pixels */
"                                ",
"                                ",
"              . . . .           ",
"          ..............        ",
"         .oooooooooooooo.       ",
"       ...oooooooooooooo...     ",
"      .OOOoooooooooooooo.XX.    ",
"      .OOOoooooOOOOoOOOO.XX.    ",
"       ...oooooO...o...O...     ",
"         .oooooOOOOoOOOO.       ",
"         .oooooooooooooo.       ",
"         .oooooo..........      ",
"         .ooooooooooooooo.      ",
"        ..ooooooooooooooo.      ",
"       .oo...............       ",
"      .ooooooooooo.XX.          ",
"      .oooooooooooo.XX.         ",
"      .ooooooooooooo.XX.        ",
"      .ooooooooooooo.XX.        ",
"      .oooooooo.ooooo.XX.       ",
"      .oooooooo.ooooo.XX.       ",
"      .oooooooo.ooooo.XX.       ",
"      .oooooooo..ooooo.XX.      ",
"      .ooooooooo.ooooo.XX.      ",
"      .ooooooooo.ooooo.XX.      ",
"      .oooooooo.oooooo.XX.      ",
"      .ooooooo..oooooo.XX.      ",
"      .oooooo.o.oooooo.XX.      ",
"      .ooo....o.oooooo.XX.      ",
"       .ooooooo.oooooo.XX.      ",
"        .oooooo.ooooo.XX.       ",
"        .............XX.        "
};
