/* XPM */
static char *monster_mimic1683883730[] = {
/* columns rows colors chars-per-pixel */
"32 32 11 1 ",
"  c None",
". c black",
"X c #7C421C",
"o c #983420",
"O c #F02929",
"+ c #B57521",
"@ c #FFDC00",
"# c #EB3C96",
"$ c #FF70DF",
"% c #FF94B3",
"& c white",
/* pixels */
"                                ",
"                                ",
"                                ",
"    ........................    ",
"   .@@.+++++o..++++++++++++@.   ",
"  .@++@.+++++o..+++++++..+++@.  ",
" .@++++@.XXXXXo..XXXX...oXXXX@. ",
" .@++++@.++++++o.+++..oo+++++@. ",
" .@XXXX@.+++&OO++++oo+&OO++++@. ",
" .@++++@.+++&OO+++++++&OO++++@. ",
" .@++++@.+++&&&+++++++&&&++++@. ",
" .@++++@.++++++++++++++++++++@. ",
" .@@++@@.&+++&+++&+++&++++++@@. ",
" ........&&&&&&&&&&&&&$&&$$&&.. ",
" .@@++@@.@@&+++&+@@&@o$$&#$%&@. ",
" .@++++@.@+++++++@..@o$$%#$%+@. ",
" .@++++@.@+++++++@..@o$$%#$%+@. ",
" .@++++@.@++++++++@@+o$$%#$%+@. ",
" .@++++@.@+++++++++++o$$%#$%+@. ",
" .@XXXX@.@+++++++++++o$$$$$%+@. ",
" .@++++@.@XXXXXXXXXXXXo$$$$XX@. ",
" .@++++@.@+++++++++++++ooo+++@. ",
" .@++++@.@+++++++++++++++++++@. ",
" .@++++@.@+++++++++++++++++++@. ",
" .@++++@.@+++++++++++++++++++@. ",
" .@XXXX@.@+++++++++++++++++++@. ",
" .@++++@.@XXXXXXXXXXXXXXXXXXX@. ",
" .@++++@.@+++++++++++++++++++@. ",
" .@++++@.@+++++++++++++++++++@. ",
" .@++++@.@+++++++++++++++++++@. ",
" .@@++@@.@@+++++++++++++++++@@. ",
" .............................. "
};
