/* XPM */
static char *monster_wolf1683883732[] = {
/* columns rows colors chars-per-pixel */
"32 32 5 1 ",
"  c None",
". c black",
"X c #584545",
"o c #F02929",
"O c #9F917E",
/* pixels */
"                                ",
"                                ",
"                                ",
"                                ",
"                                ",
"                                ",
"                                ",
"                                ",
"                  ..  ..        ",
"                  ... ...       ",
"                  ... ...       ",
"                  ... ....      ",
"                  ........      ",
"                 .OOOOOOOO.     ",
"                 .OOOOOOOO.     ",
"                 .OOOOoooO.     ",
"      ............OOOOOooOO...  ",
"     .OOOOOOOOOOO.OOOOOOOOOOOO. ",
"    .OOOOOOOOOOOO.OOOOOOOOOOO...",
"   .OOOOOOOOOOOOO.OOOOOOOOOOO...",
"  .OOOOO.OOOOOOOO.OOOOOOOOOOO...",
" .OOOOOO.OOOOOOOOO.OOOOOOOOOOO. ",
".OOOOOOOO.OOOOOOOOO...........  ",
".OO.OOOOO.OOOOOOOOOOOOOO.       ",
".OO.OOOOO.OOOOOOOOOOOOOO.       ",
".OO.OOOO.X.OOOOOOOOOOOO..       ",
".OO.OOOO.XX......OOOOO.X.       ",
".OO..OO.XXX.     .OOO.XX.       ",
".OO..OO.XX.       .OO.XX.       ",
".O. .OO.XX.       .OO.XX.       ",
"..  .OO.XX.       .OO.XX.       ",
".   .OO.XX.       .OO.XX.       "
};
