/* XPM */
static char *monster_air_elemental1683883728[] = {
/* columns rows colors chars-per-pixel */
"32 32 5 1 ",
"  c None",
". c #FFFF37",
"X c #626F8A",
"o c #7AF2FF",
"O c #CFFFFC",
/* pixels */
"                                ",
"        .      .                ",
"       ....   ....              ",
"        .....  .....            ",
"   .     .....XXXXXXX           ",
"  ..      ....oooooooX          ",
" ....      ...oooooooX          ",
"  ..       XoooooooooX          ",
"  ..       XooooXXoXXX          ",
"  .. .     XoooooooooX          ",
"  .....    XoooooooooX          ",
"  .....   XXXXXXXXXXXXX XXXXX   ",
"  .....  XooooOooooooOoXoooooX  ",
"  .. .. XooooooOooooooOoXoOOooX ",
"  . XXXXXoooOOooOooOOooOoXooOooX",
"   XoooooXoOooOoOoOooOoOoXOooOoX",
"  XoOOOOooXOooooOoOooooOoXoOoOoX",
" XooooooOooXOooOoooOooOooXoooOoX",
" XooOOOooOoXoOOoooooOOoooXooOooX",
" XoOoooOoOoXooooooooooooXoOOooX ",
" XoOooOooOoXXXXXXXXXXXXXoooooX  ",
" XooOoooOooXooooOOoooX  XXXXX   ",
"  XooOOOooXoooOOoooooX          ",
"   XoooooX XOOooooooX           ",
"    XXXXX  XooooooOOX           ",
"     ..     XoooOOoX            ",
"     ..     XoOOoooX            ",
"     ..      XooooX             ",
"     ..      XooooX             ",
"     ..       XooX              ",
"              XooX              ",
"               XX               "
};
