/* XPM */
static char *monster_earth_elemental1683883729[] = {
/* columns rows colors chars-per-pixel */
"32 32 3 1 ",
"  c None",
". c #7C421C",
"X c #B57521",
/* pixels */
"                                ",
"                                ",
"                                ",
"                                ",
"                                ",
"                                ",
"                                ",
"                                ",
"                                ",
"                                ",
"            .........           ",
"           .XXXXXXXXX.          ",
"           .XXX..XX...          ",
"           .XXXXXXXXX.          ",
"           .XXXXXXXXX.          ",
"          ............. .....   ",
"         .XXXXX.XXX.XXX.XXXXX.  ",
"        .XXXXXXX.XXX.XXX.XXXXX. ",
"    .....XXXXXXXX.XXX.XXX.X.....",
"   .XXXXX.XXXXXXX.XXX.XXX.XXXXX.",
"  .XXXXXXX.XXXXXX.XXX.XXX.XXXXX.",
" .XXXXXXXXX.XXXX.XXX.XXXX.XXXXX.",
" .XXXXXXXXX.XXX.XXX.XXXXX.X.....",
" .XX.XXX.XX.XXXXXXXXXXXX.XXXXX. ",
" .XX.XXX.XX.............XXXXX.  ",
" .XX.XXX.XX.XXXXXXXXX.  .....   ",
"  .X.XXX.X.XXXXXXXXXX.          ",
"   ..XXX.. ..........           ",
"    .....  .XX.  .XX.           ",
"           .XXX. .XXX.          ",
"           .XXX. .XXX.          ",
"            ...   ...           "
};
