/* XPM */
static char *monster_goblin1683883730[] = {
/* columns rows colors chars-per-pixel */
"32 32 8 1 ",
"  c None",
". c black",
"X c #7C421C",
"o c #F02929",
"O c #B57521",
"+ c #2F8735",
"@ c #4CBD56",
"# c #FFFF37",
/* pixels */
"             ...                ",
"              .+.               ",
"   .          .++.              ",
"   ..    .............          ",
"   .@.. .@@@@@@@@@@@@@.         ",
"    .@@..@@@@@@@@@@@@@+.        ",
"     .@@@.@@@@@oo@@oo@@.        ",
"      .@@@.@@@@oo@@oo@+.        ",
"       .@@@@@@@@@@@@@+@.        ",
"       ..@@@@@@@@@@@.....       ",
"       .@+@@@@@@@@@@@+@@@....   ",
"       .@@@@@@@@@@@@+@+@@@@@@.  ",
"        .@@@@@@@@@@+@+.......   ",
"         .@@@@@@@...+.          ",
"          .@@@@+@+@+.           ",
"           .........            ",
"             .+@+.         .    ",
"           ..@@@@@..      .O.   ",
"         ..@@@@@@@@@..    .O.   ",
"        .@@@@@@@@@@@@@....OOO.  ",
"        .@@+@@+@+@@+@@@@@@@O@.  ",
"        .@@.++@@@++..@@@@@@OO.  ",
"        .@@.@@@@@@@. .....OOX.  ",
"        .@@.#######.     .OOO.  ",
"        .@@.########     .OOX.  ",
"        .@@.###.###.    .OOOOX. ",
"        .@@.@@. .@@@.   .OOOOO. ",
"         ..@@.   .@@.   .OOOOX. ",
"          .@@.   .@@.   .OOOOO. ",
"          .@@.   .@@.   .OOOOX. ",
"          .@@@.  .@@@.  .OOOXO. ",
"          .@@@@.  .@@@.  .OXO.  "
};
