/* XPM */
static char *monster_ghost1683883729[] = {
/* columns rows colors chars-per-pixel */
"32 32 4 1 ",
"  c None",
". c black",
"X c #222034",
"o c white",
/* pixels */
"                                ",
"                                ",
"                                ",
"                                ",
"         ............           ",
"        .ooooooooooooX          ",
"       .oooooooooooooo.         ",
"       .oooooooooooooo.         ",
"       .oooooooooooooo.         ",
"       .oooooooooooooo.         ",
"       .oooooooooooooo.         ",
"       .oooooooooooooo.         ",
"       .ooooooo...o....         ",
"   ... .ooooooo...o....         ",
"  .ooo..oooooooooooooo.         ",
"  .ooo..ooooooooo......         ",
"  .ooo. ..............          ",
"  .ooooXoooooooooooooo........  ",
"  .ooooooooooooooooooooooooooo. ",
"  .ooooooooooooooooooooooooooo. ",
"   .oooooooooooooooooooooooooo. ",
"    ......oooooooooooo........  ",
"         .ooooooooooo.          ",
"         .ooooooooooo.          ",
"         .oooooooooo.           ",
"         .oooooooo..            ",
"          ...oooo.              ",
"             ....               ",
"                                ",
"                                ",
"                                ",
"                                "
};
