/* XPM */
static char *monster_wasp1683883732[] = {
/* columns rows colors chars-per-pixel */
"32 32 6 1 ",
"  c None",
". c black",
"X c #222034",
"o c #FFAE2B",
"O c #FFFF37",
"+ c white",
/* pixels */
"                                ",
"                                ",
"                                ",
"                                ",
"                                ",
"  ...      .................    ",
" .+++.    ......oOoOoOoOo....   ",
".+++++.   ..+...OoOoOoOoO....   ",
".++++++.  ......oOoOoOoOo....   ",
".+++++++. .......OOOOOOOO....   ",
".++++++++........OOOOOOOO....   ",
" .+++++++........OOOOOOOO....   ",
"  .+++++..oo.....OOOOOOOO...    ",
"   .....OOOOoooo.........       ",
"    .....OOOOOOOooooooo.        ",
"  ..+++++OOOOOOOOOOOOOO.        ",
" .++++++++OOOOOO........        ",
".+++++++++OOOOOOOOOOOO......    ",
".++++++++.OOOO........      .   ",
".+++++++..O.......OO.....    .  ",
" .+++++.............     .      ",
"  ..........OOOOO......   .     ",
"    ...OOOOOOOOOX      .        ",
"    ..OOOO......        .       ",
"     .OOO.......        .       ",
"     .OO..OOOOO.                ",
"     .O..OOOO....               ",
"      ..OOOO.......             ",
"       .OOO...OOOOO.            ",
"        .....OOOOOOO..          ",
"         .....OOOOOOOO..        ",
"              ........          "
};
