/* XPM */
static char *monster_owl1683883730[] = {
/* columns rows colors chars-per-pixel */
"32 32 7 1 ",
"  c None",
". c black",
"X c #663931",
"o c #6A3C33",
"O c #F66D1E",
"+ c #A7665B",
"@ c #FECD8E",
/* pixels */
"                                ",
"                                ",
"       ..................       ",
"      .+@@@@@++++++@@@@@+.      ",
"     .++@...@++++++@...@++.     ",
"     .++@...@++++++@...@++.     ",
"     .++@...@++++++@...@++.     ",
"     .++@...@++++++@...@++.     ",
"     .++@...@+...++@...@++.     ",
"     .++@@@@@.OOO.+@@@@@++.     ",
"     .+++++++.OOOO.+++++++.     ",
"     .+++++++.OOOOO.++++++.     ",
"     ..........OOOO........     ",
"     .ooooooooo..OO.oooooo.     ",
"     ....oooooooo.O.ooo....     ",
"     .+o+.oooooooo.ooo.+o+.     ",
"     .o+o+.oooooooooo.+o+o.     ",
"     .+o+o.oooooooooo.o+o+.     ",
"     .o+o+.oooooooooo.+o+o.     ",
"     .+o+o.oooooooooo.o+o+.     ",
"     .o+o+.oooooooooo.+o+o.     ",
"     .+o+o.oooooooooo.o+o+.     ",
"     .o+o+.oooooooooo.+o+o.     ",
"     .+o+.oooooooooooo.+o+.     ",
"     .o+.oooooooooooooo.+o.     ",
"     .+.oooooooooooooooo.+.     ",
"     .X..oo..oo..oo..oo..X.     ",
"      ..+..+...  ...+..+..      ",
"       .O++O.      .O++O.       ",
"       .OOOO.      .OOOO.       ",
"       .OOOO.      .OOOO.       ",
"      .OOOOOO.    .OOOOOO.      "
};
