/* XPM */
static char *monster_ankheg1683883728[] = {
/* columns rows colors chars-per-pixel */
"32 32 5 1 ",
"  c None",
". c black",
"X c #7C421C",
"o c #B57521",
"O c white",
/* pixels */
"        .                       ",
"       .X.                      ",
"    . .XXX. .                   ",
"   .o.XXXXX.o.                  ",
"   .Xo.....oX.                  ",
"   .oXoooooXo.                  ",
"   ..ooooooo..                  ",
"   .X.ooooo.X.                  ",
"   .oX.....Xo.                  ",
"   .XoooooooX.                  ",
"   .oXoooooXo.                  ",
"    ..ooooooo..                 ",
"    .o.ooooo.o.                 ",
"    .Xo.....oX.                 ",
"    .oXoooooXo.  ...........    ",
"    .XoooooooX. .O..ooooo.O..   ",
"     ..Xooo.........ooooo....   ",
"     .o.oo.oooXo....ooooo....   ",
"     .Xo..oooooX...ooooooo...   ",
"     .oXo.ooooo..ooooooooooo.   ",
"     .Xoo.oooo.X.ooooooooooo.   ",
"     .oXo.ooo.oX.OOO.....OOO.   ",
"     .Xoo.ooo.oX.OOO.X. .OOO.   ",
"      .Xo.ooo.ooX.OO.X. .OO.    ",
"       ...ooo.oooX.O.X. .O.     ",
"         .ooo.ooooX..X. ..      ",
"         .ooo.oooooXXX.         ",
"         .o...o........         ",
"         .o. .o..X. .X.         ",
"         .o. .o..X. .X.         ",
"         ..  ..  ..  ..         ",
"         .   .    .   .         "
};
