/* XPM */
static char *door11683883885[] = {
/* columns rows colors chars-per-pixel */
"32 32 103 2 ",
"   c #1C0A0E",
".  c #1D0C12",
"X  c #160A1A",
"o  c #1A0E1C",
"O  c #1A101F",
"+  c #24110F",
"@  c #230E12",
"#  c #251112",
"$  c #2B1414",
"%  c #2E1915",
"&  c #22141E",
"*  c #2D1518",
"=  c #2E1A1A",
"-  c #311614",
";  c #331A16",
":  c #3C1D16",
">  c #351C1A",
",  c #3B1E1C",
"<  c #3A2016",
"1  c #37211A",
"2  c #3D231D",
"3  c #140F2E",
"4  c #1D1221",
"5  c #221625",
"6  c #241827",
"7  c #221729",
"8  c #24182A",
"9  c #291C2C",
"0  c #241A31",
"q  c #2D1E32",
"w  c #3E2421",
"e  c #3C252C",
"r  c #2E2133",
"t  c #332535",
"y  c #33263A",
"u  c #37283C",
"i  c #392B3F",
"p  c #44241E",
"a  c #4A261E",
"s  c #43291F",
"d  c #4D291E",
"f  c #532B1F",
"g  c #422520",
"h  c #492721",
"j  c #442A22",
"k  c #4C2B22",
"l  c #532D22",
"z  c #592F24",
"x  c #562F28",
"c  c #4D3126",
"v  c #4E3328",
"b  c #563125",
"n  c #5A3225",
"m  c #553629",
"M  c #5C3428",
"N  c #573929",
"B  c #5C3B2B",
"V  c #4C3133",
"C  c #4A3038",
"Z  c #5F3F30",
"A  c #5C3A38",
"S  c #613626",
"D  c #663926",
"F  c #613728",
"G  c #653A2A",
"H  c #6A3E2C",
"J  c #693F30",
"K  c #65432F",
"L  c #6E412D",
"P  c #664230",
"I  c #6C4632",
"U  c #6D4A34",
"Y  c #724732",
"T  c #724D36",
"R  c #784E35",
"E  c #775036",
"W  c #75513A",
"Q  c #7D553B",
"!  c #7F583D",
"~  c #372D43",
"^  c #3A2D43",
"/  c #3D2F48",
"(  c #3D3147",
")  c #3E3149",
"_  c #3F3550",
"`  c #41344D",
"'  c #413553",
"]  c #473A52",
"[  c #4A3C53",
"{  c #4D3E59",
"}  c #4F405D",
"|  c #53425E",
" . c #534361",
".. c #825036",
"X. c #815138",
"o. c #82593D",
"O. c #885F41",
"+. c #8C6142",
"@. c #9B6D47",
"#. c #A3734B",
"$. c #BA8554",
"%. c #BF8858",
"&. c #746084",
/* pixels */
"c c 1 > N m w w B m c > c j k = j j c 1 g v m h 1 m c N w > c = ",
"$.$.#.; +.#.N 1 B k 2 * g g g # w h j % g x B 2 m o.@.@.> #.+.w ",
"%.Q B k # ; . .   @ # * $ @ * - $ $ * * @ @     # 2 m @ g +.o.2 ",
"B K m k @ # * 2 p p p p , > g h g p p , > g g l > . . ; B K O.. ",
"B $ h @ * 2 , l l l l f h : M n h l l , h z d l l , % . j U ! k ",
"$.w   * , l > l f l l l g , G b d h l , l l a f h , n ; $ 1 w g ",
"@.> @ , h l > l l l x l g , G n a l l , h x f n a > G k . % ! w ",
"@.  @ h l l > l l l x l a > G l l l l , h x l x g > M n # 2 ! c ",
"U # $ b z z ; l z f n n h , H f l n n : k n f M d > S n - > U , ",
"h . $ b k f - d a p d d : - z a a f p - p l d f p - l d - # j > ",
"o.+ i ) ( ) ( ` { [ [ [ { { { [ { [ [ | ] ^ ) ) / ` / ' 9 , W c ",
"E $ 4 9 6 8 6 7 q t t 9 q q r q q q q t 9 5 8 8 9 8 6 9 o 2 U g ",
"U $ o 8 u 4 5 i 9 4 O i 9 4 4 r i o 5 9 i 4 6 4 [ 9 4 8 & p U s ",
"U % 4 8 8 8 8 7 7 7 6 9 8 8 6 8 7 7 8 8 8 6 7 8 8 8 8 8 & < T g ",
"E %   ; $ % # $ $ - $ $ # # ; % $ ; $ + # - $ * # # ; %   , U j ",
"s + $ G k F > b n M f S d , H S n S H p d n M z k , G S * . 2 1 ",
"l # # D n S > l x l l G a , D M M a H p h l n l l > F M @ , Q , ",
"R $ # A e z > b b l l M h , G n n R G : h l b n l > F M @ 2 ! j ",
"U # @ &.0 w p l l b l b k , G n n X.H , h l h F l = F M @ 2 ! g ",
"E $ # 7 3 V : l l l l b k , D M n F F 2 h G Y M l > F B # 2 Q j ",
"g # $ l C H - n z z n f l : H f H a S : a H ..S l - D M # 2 o.; ",
"P # # G D d - k d d d d g ; M p l l p ; 2 l l z l ; x m * $ v w ",
"E $ y ) ~ ' | } | | | |  .| | | {  .|  . . . . .~ / ( _ 9 % Z j ",
"R $ 4 7 5 6 8 6 6 6 8 6 5 8 8 6 8 7 7 8 8 6 8 8 7 8 5 6 . s ! g ",
"E $ X ^ t 4 y ~ 4 5 4 y u 4 4 ( t o i u 4 5 ] 5 8 i 4 ` t - G s ",
"E $ O 7 4 8 8 7 7 6 6 6 8 4 4 6 7 7 6 7 7 7 5 6 7 7 7 0 & $ c g ",
"o.% # 1 ; $ @ % % ; , * $ # > * $ ; ; # * $ - $ $ @ ; -   2 Q j ",
"c   $ L H l > n n D L S k , L l d G G : k n M x a > D z * 1 W > ",
"B # $ J H f > n l F h G h , H l k l n : h x M n d > G f $ 2 O.2 ",
"Q $ @ G H h ; n l n l M g , G l k h n , k l l n a > S l $ $ m s ",
"Q $ @ J J l > n l n m l p , F x l k M > k l x l a > B x $ = U j ",
"B $ * J I l , M l x l l h w J m l l n p l x x m h , B b = w W w "
};
