/* XPM */
static char *friedegg1683883540[] = {
/* columns rows colors chars-per-pixel */
"32 32 9 1 ",
"  c None",
". c #252B45",
"X c #3A4467",
"o c #F77622",
"O c #615E81",
"+ c #8B9BB5",
"@ c #A592AB",
"# c #C0CCDC",
"$ c #ECF0F1",
/* pixels */
"                                ",
"              XXX               ",
"             .X XX              ",
"             .X XX              ",
"             .XXXX              ",
"             .XXXX              ",
"             .XXXX              ",
"             .XXXX              ",
"             .XXXX              ",
"             .XXXX              ",
"            #######             ",
"          ##++++OOO##           ",
"        ##+++$$$$$OOO##         ",
"       #+++$$$$$$$$$OOO#        ",
"       #+$$oooo$$$$$$@O#        ",
"      #++$oooooo$$$$$@OO#       ",
"      #+$$oooooo$$$$$$@O#       ",
"     #++$$oooooo$$$$$$@OO#      ",
"     #+$$$oooooo$$$$$$$@O#      ",
"     #+$$$$oooo$$$$$$$$@O#      ",
"     #+$$$$$$$$$oooo$$$@O#      ",
"     #+$$$$$$$$oooooo$$@O#      ",
"     #+$$$$$$$$oooooo$$@O#      ",
"     #++$$$$$$$oooooo$@OO#      ",
"      #+$$$$$$$oooooo$@O#       ",
"      #++$$$$$$$oooo$@OO#       ",
"       #+$$$$$$$$$$$$@O#        ",
"       #+$$$$$$$$$$$OOO#        ",
"        ##+++$$$$$OOO##         ",
"          ##++++OOO##           ",
"            #######             ",
"                                "
};
