/* XPM */
static char *gold1683883540[] = {
/* columns rows colors chars-per-pixel */
"32 32 6 1 ",
"  c None",
". c #161616",
"X c #6A6512",
"o c #ADA100",
"O c #FFF568",
"+ c white",
/* pixels */
"                                ",
"                                ",
"                                ",
"                                ",
"                                ",
"                                ",
"            XXXX                ",
"           XO+OOX               ",
"          XoOO+OOX              ",
"        XXXXoOO+XXXXX           ",
"       XO+OOXoOXoooXOX          ",
"      XoOO+OOXXoooooXOX         ",
"    XXXXoOO+XXXXXXXXXXXX        ",
"   XO+OOXoOXoooXXXooXoooX       ",
"  XoOO+OOXXoooooXXXXoooooX      ",
"   XoOO+XXXXXXXXXXXXXXXXXXX     ",
"    XoOXoooXXooXoooXXooXoooX    ",
"     XXoooooXXXoooooXXXoooooX   ",
"      XXXXXXX.XXXXXXX.XXXXXXX   ",
"                                ",
"                                ",
"                                ",
"                                ",
"                                ",
"                                ",
"                                ",
"                                ",
"                                ",
"                                ",
"                                ",
"                                ",
"                                "
};
