/* XPM */
static char *money11683883541[] = {
/* columns rows colors chars-per-pixel */
"32 32 4 1 ",
"  c None",
". c #BF4830",
"X c #FDAE35",
"o c #FFD943",
/* pixels */
"                                ",
"                                ",
"                                ",
"                                ",
"             XXXXXXX..          ",
"           XX.XXXXXXXX..        ",
"          X.XXXXXXXXXXX..       ",
"         X.XXXXXXXXXXooX..      ",
"        X.XXXXXXXXXXooooX..     ",
"        X.XXXXX.XX.ooooXX..     ",
"        X.XXXXX.XX.oooXXX..     ",
"       X.XXXXX......oXXXXX..    ",
"       X.XXXX..Xooo..XXXXX..    ",
"       X.XXXX..oooo..XXXXX..    ",
"       X.XXXX..oooXXXXXXXX..    ",
"       X.XXXX...oXXXXXXXXX..    ",
"       X.XXXooo....XXXXXXX..    ",
"       X.XXooooXXX..XXXXXX..    ",
"       X.XooooXXXXX..XXXXX..    ",
"       X.Xooo..XXXX..XXXXX..    ",
"       X.XooX..XXXX..XXXXX..    ",
"        X.XXXX......XXXXX..     ",
"        X.XXXXX.XX.XXXXXX..     ",
"        X.XXXXX.XX.XXXXXX..     ",
"         X.XXXXXXXXXXXXX..      ",
"          X.XXXXXXXXXXX..       ",
"           XX.XXXXXXXX..        ",
"             XXXXXXX..          ",
"                                ",
"                                ",
"                                ",
"                                "
};
