/* XPM */
static char *tile0011684833521[] = {
/* columns rows colors chars-per-pixel */
"32 32 6 1 ",
"  c None",
". c black",
"X c #550F0A",
"o c #9B1A0A",
"O c #EF3A0C",
"+ c white",
/* pixels */
"                                ",
"                                ",
"                                ",
"                                ",
"                                ",
"     .......        .......     ",
"    .Xoooooo.      .       .    ",
"   .ooOOOOOOo.    .         .   ",
"  .XoO+OOOOOOO.  .           .  ",
"  .oo+OOOOOOOOO..            .  ",
"  .oo+OOOOOOOOOO             .  ",
"  .ooOOOOOOOOOOO             .  ",
"  .ooOOOOOOOOOOO             .  ",
"  .ooOOOOOOOOOOO             .  ",
"  .XoOOOOOOOOOOO             .  ",
"   .ooOOOOOOOOOO            .   ",
"    .XoOOOOOOOOO           .    ",
"     .ooOOOOOOOO          .     ",
"      .XoOOOOOOO         .      ",
"       .ooOOOOOO        .       ",
"        .XoOOOOO       .        ",
"         .ooOOOO      .         ",
"          .XoOOO     .          ",
"           .ooOO    .           ",
"            .XoO   .            ",
"             .oo  .             ",
"              .X .              ",
"               ..               ",
"                                ",
"                                ",
"                                ",
"                                "
};
