/* XPM */
static char *tile0021684833522[] = {
/* columns rows colors chars-per-pixel */
"32 32 3 1 ",
"  c None",
". c black",
"X c white",
/* pixels */
"                                ",
"                                ",
"                                ",
"                                ",
"                                ",
"     .......        .......     ",
"    .       .      .       .    ",
"   .         .    .         .   ",
"  .   X       .  .           .  ",
"  .  X         ..            .  ",
"  .  X                       .  ",
"  .                          .  ",
"  .                          .  ",
"  .                          .  ",
"  .                          .  ",
"   .                        .   ",
"    .                      .    ",
"     .                    .     ",
"      .                  .      ",
"       .                .       ",
"        .              .        ",
"         .            .         ",
"          .          .          ",
"           .        .           ",
"            .      .            ",
"             .    .             ",
"              .  .              ",
"               ..               ",
"                                ",
"                                ",
"                                ",
"                                "
};
