/* XPM */
static char *tile0001684833522[] = {
/* columns rows colors chars-per-pixel */
"32 32 6 1 ",
"  c None",
". c black",
"X c #550F0A",
"o c #9B1A0A",
"O c #EF3A0C",
"+ c white",
/* pixels */
"                                ",
"                                ",
"                                ",
"                                ",
"                                ",
"     .......        .......     ",
"    .Xoooooo.      .ooooooX.    ",
"   .ooOOOOOOo.    .oOOOOOOoo.   ",
"  .XoO+OOOOOOO.  .OOOOOOOOOoX.  ",
"  .oo+OOOOOOOOO..OOOOOOOOOOoo.  ",
"  .oo+OOOOOOOOOOOOOOOOOOOOOoo.  ",
"  .ooOOOOOOOOOOOOOOOOOOOOOOoo.  ",
"  .ooOOOOOOOOOOOOOOOOOOOOOOoo.  ",
"  .ooOOOOOOOOOOOOOOOOOOOOOOoo.  ",
"  .XoOOOOOOOOOOOOOOOOOOOOOOoX.  ",
"   .ooOOOOOOOOOOOOOOOOOOOOoo.   ",
"    .XoOOOOOOOOOOOOOOOOOOoX.    ",
"     .ooOOOOOOOOOOOOOOOOoo.     ",
"      .XoOOOOOOOOOOOOOOoX.      ",
"       .ooOOOOOOOOOOOOoo.       ",
"        .XoOOOOOOOOOOoX.        ",
"         .ooOOOOOOOOoo.         ",
"          .XoOOOOOOoX.          ",
"           .ooOOOOoo.           ",
"            .XoOOoX.            ",
"             .oooo.             ",
"              .XX.              ",
"               ..               ",
"                                ",
"                                ",
"                                ",
"                                "
};
