/* XPM */
static char *green11683883932[] = {
/* columns rows colors chars-per-pixel */
"32 32 6 1 ",
"  c #C0F675",
". c #5A4E44",
"X c #9CDB43",
"o c #796755",
"O c #A08662",
"+ c white",
/* pixels */
" ....X XXX.XXX....XXX.XXXXX.... ",
"..oo..XX.o..XX.oo.XX..o.XX..oo..",
"XXoO.oo.oOooX.oooo.XooOo.oo.OoXX",
"XX oooOooOOOOOOOOoooOOOooOooo  X",
"XXXXoOOOOOOOOOOOOOOOOOOOOOOoXXXX",
"XX..oOOOOOOOOOOOOOOOOOOOOOOo..XX",
"....oOOOOOOOOOOOOOOOOOOOOOOo....",
"X.oOOOOOOOOOOOOOOOOOOOOOOOOoOo.X",
" XooOOOOOOOOOOOOOOOOOOOOOOOOooXX",
"X ooOOOOOOOOOOOOOOOOOOOOOOOOoo X",
"..ooOOOOOOOOOOOOOOOOOOOOOOOOoo..",
" ..OOOOOOOOOOOOOOOOOOOOOOOOOO..X",
"XooOOOOOOOOOOOOOOOOOOOOOOOOOOooX",
"XXXoOOOOOOOOOOOOOOOOOOOOOOOOoXXX",
"XXooOOOOOOOOOOOOOOOOOOOOOOOOooXX",
"..oOOOOOOOOOOOOOOOOOOOOOOOOOOo..",
"..OOOOOOOOOOOOOOOOOOOOOOOOOOOO..",
"X.OOOOOOOOOOOOOOOOOOOOOOOOOOOO.X",
" ooOOOOOOOOOOOOOOOOOOOOOOOOOOooX",
"XXoOOOOOOOOOOOOOOOOOOOOOOOOOOoXX",
"XX.oOOOOOOOOOOOOOOOOOOOOOOOOo.X ",
"X.ooOOOOOOOOOOOOOOOOOOOOOOOOOo.X",
"..oOOOOOOOOOOOOOOOOOOOOOOOOOOo..",
".ooOOOOOOOOOOOOOOOOOOOOOOOOOOoo.",
" XOOOOOOOOOOOOOOOOOOOOOOOOOOOOXX",
" XoOOOOOOOOOOOOOOOOOOOOOOOOOOoX ",
"X.ooOOOOOOOOOOOOOOOOOOOOOOOOoo.X",
"..oOOOOOOOOOOOOOOOoOOOOOOOOOoo..",
".ooOoooOOOOOOOOOOoOooooOOoooOoo.",
" ooo oooOOoo.oOOoooX ..ooXo..oo ",
"XXoXX... X... Ooo XXXX...X .XoXX",
"XXXXX..XXX .XXooXXXXXXXXXXXXXoXX"
};
