/* XPM */
static char *green21683883932[] = {
/* columns rows colors chars-per-pixel */
"32 32 3 1 ",
"  c #9CDB43",
". c #423934",
"X c white",
/* pixels */
"                                ",
".                              .",
".                              .",
"                                ",
".                              .",
".                              .",
".                               ",
"                               .",
".                              .",
".                              .",
".                              .",
"                                ",
".                              .",
".                              .",
"                               .",
".                               ",
".                              .",
".                              .",
".                              .",
"                                ",
".                              .",
".                              .",
".                               ",
"                               .",
".                              .",
".                              .",
".                              .",
".                               ",
".                              .",
".                              .",
"                               .",
"                                "
};
