/* XPM */
static char *green31683883932[] = {
/* columns rows colors chars-per-pixel */
"32 32 4 1 ",
"  c #9CDB43",
". c #59C135",
"X c #423934",
"o c white",
/* pixels */
"                      .         ",
"X                     .  .     X",
"X .    ..         .... ..  .  .X",
".       ... .                   ",
"X..                            X",
"X...                           X",
"X.                         . . .",
"..         ...   . ...     .. .X",
"X                 .       .....X",
"X.  .                          X",
"X ... ..                       X",
". .......              .       .",
"X...                    ...   .X",
"X                            ..X",
".            .....  . .       .X",
"X...        ....  ..           .",
"X....                          X",
"X..                   ..       X",
"X...  ..  ...                ..X",
"...                       ..... ",
"X.                            .X",
"X..                    .       X",
"X  .     .        .......      .",
"...     . ...       .... .    .X",
"X                            ..X",
"X                              X",
"X.                      .      X",
"X ...      . . .....     ..  ...",
"X        ............          X",
"X                              X",
"..    .               .      . X",
"...  ...     ..      .        .."
};
