/* XPM */
static char *box1683883994[] = {
/* columns rows colors chars-per-pixel */
"32 32 17 1 ",
"  c None",
". c #141108",
"X c #19130A",
"o c #1F1A0E",
"O c gray10",
"+ c #1A1620",
"@ c #3F3524",
"# c #3E3337",
"$ c #413B2D",
"% c #4F3535",
"& c #534639",
"* c #736344",
"= c #716057",
"- c #877352",
"; c #897957",
": c #807460",
"> c #817971",
/* pixels */
"                                ",
"  OXOOXOOXOOXOOXOOXOOXOOXOOXOO  ",
"  O@::>::>:=====::>=======:>@X  ",
"  X:%==;>;>;:;:;>;:;:;:;:;>@:O  ",
"  o>:oo+X+XOOOO+oOO+OOOOO+o=:O  ",
"  O::O@@#@@#@@@@#@@@@@@@@@+=;+  ",
"  X>:O=:=%:=@==@==#===#:=@X==o  ",
"  +;:o=;=#;=%==%;=@;=:%;=#o==O  ",
"  o:>o=>:@:=@;=@:=%>=:@:=@+;=X  ",
"  O:;+=;>%:=%:=%:=@:->%:=%X>=o  ",
"  X>:o=;=@>=@>=@==%:=:@>=@X:=o  ",
"  o=>o=:=%;=%;=@-=@:=>@-=@+;=O  ",
"  o=:o=;=@==@:=#:=%;==@==#X>=X  ",
"  O=;+===%==$==@==@>=-@==@o:=O  ",
"  X=>oooOXooXoOoooXoX+Xoo+X>;O  ",
"  O:%:>:::>:>:::>:>:>::====@>X  ",
"  o@=>;>;>:;=====>;>;>:>;>;:@O  ",
"  OXoX+o+oo+oooooo+X+Xoo+X+O+X  ",
"  X+&&%===&%======&&&&&===&%oO  ",
"  X&X&&&=&&&&&&&&&&====&&&&O=O  ",
"  O&=XOXOXXOXOXOXXXXOoXOXXX&=X  ",
"  O%=O@#@##@#@#@###@#@#@##O&=O  ",
"  X&=X&%&=======*==&%&&%&@X&=X  ",
"  O=&+&&&&&&&&&&=======&%@O&=O  ",
"  X=&X@@#@@@@@@@@@%@$@$@@#X=&X  ",
"  O=&O%&%========&&======@+=&O  ",
"  X=&X===&&&&&&&&%&&&&&&&@X=&X  ",
"  O&&OOooOXOX+XOXOOXXXX+X+O&&O  ",
"  X&X===&===&&&%&&%&&====&%X&X  ",
"  OX=&&&&&&=========&&&&&&==OX  ",
"  OXOXXXO.OXoXOoOoOXOXOXXOoOX+  ",
"                                "
};
