/* XPM */
static char *plant21683883994[] = {
/* columns rows colors chars-per-pixel */
"32 32 11 1 ",
"  c None",
". c #122020",
"X c #163425",
"o c #24523B",
"O c #1A7A3E",
"+ c #DF3E23",
"@ c #FA6A0A",
"# c #14A02E",
"$ c #59C135",
"% c #F9A31B",
"& c #FFD541",
/* pixels */
"                                ",
"           ..                   ",
"           .$.    ...           ",
"     ...   .$.   .$$$.          ",
"    .$$$.  .$#. .O#$#.          ",
"   .X$$$O. .##O..O##Oo.....     ",
"   .XXO$##..O#OXo##O...o#$$..   ",
"    ....###XX#O.+.OXXO##$####.  ",
"  ..OOo.O##OXX.@&@.X##########. ",
" .O#$OOooOOOXX+%+&+.O##X..XXX.  ",
".O#$####oX.+.X.@%@.OO.+.X..X.   ",
".XXXXOO#O.@&@...+.XOX@&@.O..    ",
".XXX....O+%+%+......+%+&+OOO.   ",
" ....OOOO.@%@........@%@.$$#.   ",
"  .OO$$$X..+.....+....+.##o##.  ",
" .O#$$XXXX#...X.@&@.X.X.$#oo#.  ",
".O##$OX..#$#XXO+%+%+.#XXX.#ooo. ",
".O#XX..#$$OXX##.@%@...$#X...Xoo.",
".oOX.#$$#OOX$$O..+.$#X.$$.. .XX.",
" ...#####OX#$o.O$$OO$X#O#O.  .. ",
"  .##O##O#X$$#.#$#X#$OX###O.    ",
" .##OOOO#XX###.$$#XO##OXX#OO.   ",
" .O.OOO#.X.###.###XO##O..XOOO.  ",
"  .OOOO...OO#o.O#OXOO#OO....O.  ",
"  .OoO. .OOOO.X.OOXOO.OOO.  ..  ",
" .Ooo.  .OOOo.X.OO.OO.XOO.      ",
" .oo.   .OOO.XX.OO.XO.X.OO.     ",
" .o.    .OOo.XX.OOXXO.X..O.     ",
"  .     .oX...XX.O..O..  ..     ",
"        .X.  ..X... .           ",
"        ..                      ",
"                                "
};
