/* XPM */
static char *plant31683883994[] = {
/* columns rows colors chars-per-pixel */
"32 32 9 1 ",
"  c None",
". c #122020",
"X c #1B392D",
"o c #24523B",
"O c #1A7A3E",
"+ c #14A02E",
"@ c #59C135",
"# c #9CDB43",
"$ c #D6F264",
/* pixels */
"                                ",
"                                ",
"               .                ",
"            . .. .              ",
"       .   .#.$X.$.   .         ",
"      .$.  .$+#X+$.  .#.        ",
"    . .##. .$O#X+#. .#@.   ..   ",
"   .$. .#@.+#O#++#. .#@.  .$.   ",
"    .#..+O.+#OO++O+.O@.  .$@.   ",
"  .  .#O.O@OOO@+O+O.+@. .+@@+.  ",
" .$.  .@OOo@OOO@OO.+@.+.+@+o.   ",
" .#@...O@OO@OOO+OOO@++o+@+o.$.  ",
" ..@@OXO@OO@oOX+oO+@+oO@+o.#.   ",
"  .+@OoXO@Oo@OX+OO@OoO@+o.@+..  ",
".. .O@ooX@Oo@oX+O+ooO+Oo.@+X++. ",
"#+.oO+@oXX+o@oX+O+oX++o.@++X+.  ",
".#+.oOO@oX+o@XX++oX++oOo@+X+#$. ",
".O+@+XOO+X+oX+Xo+oXO+O@@OXO@..  ",
" .O@oXXo+oX+X+XoOXoOoOoO@O@.    ",
"  .O@oXooOX+X+XOXXOO+X+@o+.     ",
"   .o+oXoOXOX+XOXXXOXX+oO.      ",
"    .+oXXOXOX+XOXXXO++oX.       ",
"    ..OXXOXOXXX.XXOoOXXO.       ",
"     .OXXXOXOXX.XXoXoXO.        ",
"     ..OXXoXooX.XooXoXo.        ",
"       o. o.    o   o o         ",
"                                ",
"                                ",
"                                ",
"                                ",
"                                ",
"                                "
};
