/* XPM */
static char *plant41683883994[] = {
/* columns rows colors chars-per-pixel */
"32 32 6 1 ",
"  c #617B37",
". c #918C38",
"X c #475C26",
"o c #B3B654",
"O c #413F18",
"+ c white",
/* pixels */
" ..  XX  .  o.   . X ..... o.. X",
"oo.  o  .o  o.  oo X  . .  .. XX",
"o.  .. X .  .. oo. X  X      XX ",
"o.  ..     X..oo. XO     X     o",
".   .  ..o  ..o.  XO oo XXX   o.",
"        .oo ...    X .o   .. X. ",
"X .. XXX ..o .  oo.   o. oo. X  ",
"X o.      .. . ..ooo. o.oo..    ",
" oo.ooo.  .      ..oo...o..  oo.",
"o..ooooo.   XXX X  ......    .oo",
".........  XOXX  o.....    XX ..",
"  .ooo      OX oo...   X oo     ",
" . ..o.X .o.XX o.    o.X ooo. X ",
" .   ..  .oo X ..  X o.X ...o. X",
" . XX    ..o      XX ..     .  X",
"   XXX X  .o. XXXXOXX X  o   XXX",
"X   XXOOX ...    XXOX XX...  XOO",
"XX    XX  OXOXX o. XX X  oo.. XO",
"X.o. X  . X XX  o. ..    .... XX",
"X.oo XX .XX o.  .. .. .. X.    X",
" ... XX     .o   X    oo    Xo  ",
" ..     oo  .o  XXX   .o o. o.. ",
" .. o.  .oo .. oo  o. .o ..oo.  ",
"    o.  ..o .. .o  oo .oo..o.. X",
". X .o X .  .  ..  .oo ... ..   ",
"  X .oo      XX   X .o     .ooo ",
"  . ..o oo.   X   XX .  .. .... ",
"X oo ...o.. o.  ..XX    o.  .. X",
"X .o ..o..  o.  o.  . XXo.OO  XX",
"OX.. .....  ..  .. oo.  o.XX   X",
"X      .  X   X .   .oo ..  o.XO",
"    XXX  .   o    X  .oo.. oo.XO"
};
