/* XPM */
static char *plant1683883994[] = {
/* columns rows colors chars-per-pixel */
"32 32 7 1 ",
"  c None",
". c #122020",
"X c #163425",
"o c #24523B",
"O c #1A7A3E",
"+ c #14A02E",
"@ c #59C135",
/* pixels */
"                                ",
"            ..                  ",
"            .@.    ...          ",
"      ...   .@.   .@@@.         ",
"     .@@@.  .@+. .O+@+.         ",
"    .X@@@O. .++O..O++Oo.....    ",
"    .XXO@++..O+OXo++O...o+@@..  ",
"     ....+++XX+OXoOOXXO++@++++. ",
"   ..OOo.O++OXXOXXO.X++++++++++.",
"  .O+@OOooOOOXXOX.OXXO++...XXX. ",
" .O+@++++oXXOOXXXXOXOO..XXX.X.  ",
" .XXX.OO+OOX.OOXX.OXOXXXOOOX.   ",
" .XX.....OOO..OO...X..OOO@OOO.  ",
"  ....OOOOOoO.......XOOo@@@@+.  ",
"   .OO@@@XXX...........O+++o++. ",
"  .O+@@XXXX++O.X.....XXX.@+oo+. ",
" .O++@OX..+@+XXOOX....+XXX.+ooo.",
" .++....+@@OXX++OXOOO..@+X...Xoo",
" .oO..+@@+OOX@@O.OOO@+X.@@.. .XX",
"  ...+++++OX+@o.O@@OO@X+O+O.  ..",
"   .++O++O+X@@+.+@+X+@OX+++O.   ",
"  .++OOOO+XX+++.@@+XO++OXX+OO.  ",
"  .O.OOO+.XX+++.+++XO++O..XOOO. ",
"   .OOOO..XOO+o.O+OXOO+OO....O. ",
"   .ooO. .XOOO.X.OOXOO.oOO.  .. ",
"  .Ooo.  .OOOo.X.OO.OO.XOO.     ",
"  .oo.   .OOO.XX.OO.XO.X.OO.    ",
"  .o.    .OOo.XX.OOXXO.X..O.    ",
"   .     .oX...XX.O..O..  ..    ",
"         .X.  ..X... .          ",
"         ..                     ",
"                                "
};
