/* XPM */
static char *rock1683883994[] = {
/* columns rows colors chars-per-pixel */
"32 32 194 2 ",
"   c #200609",
".  c #230D0E",
"X  c #290D0D",
"o  c #26100E",
"O  c #29120E",
"+  c #250613",
"@  c #220F11",
"#  c #2A0D11",
"$  c #330C15",
"%  c #251113",
"&  c #2C1413",
"*  c #25141A",
"=  c #341513",
"-  c #3A1414",
";  c #351916",
":  c #3C1A15",
">  c #341018",
",  c #3A141A",
"<  c #351C19",
"1  c #3A1D19",
"2  c #2F211A",
"3  c #3D221D",
"4  c #2A3018",
"5  c #1E0921",
"6  c #2D1324",
"7  c #2B1C25",
"8  c #371B27",
"9  c #2E1630",
"0  c #3A2423",
"q  c #3E2A25",
"w  c #362629",
"e  c #3D3F25",
"r  c #3B312B",
"t  c #431C16",
"y  c #4A1D16",
"u  c #4D151D",
"i  c #441E19",
"p  c #4A1F18",
"a  c #44231C",
"s  c #4B231B",
"d  c #4D291E",
"f  c #52251C",
"g  c #54291E",
"h  c #5B2A1E",
"j  c #4A3219",
"k  c #451E28",
"l  c #442521",
"z  c #4B2424",
"x  c #442A24",
"c  c #4B2B22",
"v  c #45272A",
"b  c #532C22",
"n  c #5D2C20",
"m  c #4D3026",
"M  c #4B3329",
"N  c #473C29",
"B  c #543225",
"V  c #5C3325",
"C  c #5D3C27",
"Z  c #54342A",
"A  c #5B3628",
"S  c #5D3B2B",
"D  c #5B2B30",
"F  c #4F3032",
"G  c #543033",
"H  c #543D34",
"J  c #5C3C30",
"K  c #553A38",
"L  c #633425",
"P  c #683727",
"I  c #6C3A27",
"U  c #65352D",
"Y  c #633B2B",
"T  c #6A3C2B",
"R  c #623D31",
"E  c #693D30",
"W  c #3E7411",
"Q  c #3B5421",
"!  c #56451E",
"~  c #405819",
"^  c #4C761E",
"/  c #45492A",
"(  c #5E422A",
")  c #534B2C",
"_  c #4C5D26",
"`  c #4A532A",
"'  c #4C5E2B",
"]  c #59592C",
"[  c #4C4A30",
"{  c #5B4232",
"}  c #554C36",
"|  c #495631",
" . c #4A5830",
".. c #535535",
"X. c #555B35",
"o. c #5E5838",
"O. c #63422D",
"+. c #6B422E",
"@. c #654330",
"#. c #6B4632",
"$. c #6C4B34",
"%. c #66483B",
"&. c #6C4A3D",
"*. c #744C35",
"=. c #754838",
"-. c #754E38",
";. c #7B4E38",
":. c #635939",
">. c #745136",
",. c #7B5237",
"<. c #755139",
"1. c #7B533A",
"2. c #7E5A3D",
"3. c #496B22",
"4. c #516925",
"5. c #5A642A",
"6. c #4E7A22",
"7. c #5A673A",
"8. c #5D7A36",
"9. c #646B2C",
"0. c #6D6B32",
"q. c #6E6B3A",
"w. c #756C3A",
"e. c #65783B",
"r. c #705440",
"t. c #834E3A",
"y. c #83553D",
"u. c #845B3E",
"i. c #88583E",
"p. c #805443",
"a. c #865D41",
"s. c #8A5E41",
"d. c #8F5E48",
"f. c #856341",
"g. c #8C6243",
"h. c #8B6748",
"j. c #916444",
"k. c #936946",
"l. c #996D46",
"z. c #976248",
"x. c #956B48",
"c. c #9A6E49",
"v. c #9C724C",
"b. c #9D7450",
"n. c #9E7A51",
"m. c #A06F48",
"M. c #A2754E",
"N. c #A3784F",
"B. c #A27751",
"V. c #A57A51",
"C. c #AA7C52",
"Z. c #528D24",
"A. c #5B9424",
"S. c #64842F",
"D. c #638C2F",
"F. c #6A8A36",
"G. c #748635",
"H. c #659434",
"J. c #729B36",
"K. c #6FAC2F",
"L. c #76A338",
"P. c #7CAD3C",
"I. c #7CBB3A",
"U. c #798E4C",
"Y. c #6D9940",
"T. c #759B42",
"R. c #7EAD43",
"E. c #87C63C",
"W. c #AD8256",
"Q. c #B28356",
"!. c #B38658",
"~. c #B88759",
"^. c #B58A5B",
"/. c #BB8C5C",
"(. c #BC915E",
"). c #81A740",
"_. c #8DAB4D",
"`. c #93AD47",
"'. c #8BB644",
"]. c #96B746",
"[. c #C29461",
"{. c #C49963",
"}. c #CA9C66",
"|. c #CD9D68",
" X c #D3A56A",
".X c #D6AA6C",
"XX c #DBAC6E",
"oX c #E2AD72",
"OX c #8DC244",
"+X c #95C848",
"@X c #9ACD51",
"#X c #9DDE52",
"$X c #A4DD54",
"%X c #F1C079",
/* pixels */
"7 % % ; : d 6 | q.N v U Y T E Y A z a 1 & X o % * o ; a c a 1 & ",
"* . # 6 $.%.U.].P.'.H...z.&.K r.r.r.i.=.B z ; . O 1 b #.#.#.Y = ",
". + } `.r 7.+X8.' _.L.D.k 8.#XQ R.D.v d.c.T b 1 & c #.c.v.+.Y ; ",
"X r +Xq.9 F.L.).5.4 ^ ' G 7.K.j u _ P.Q d.C.;.c & Y j.M.Q.g.g 1 ",
"> 8.J.5 9 _.'.3.M J ) n.j.v [ a ! G.+X3.D w.o.t.; #.c.B.W.v.s 1 ",
"k G.5.v 8 w 4.e M.|.oX}.U u.x ( $.4.I.` U q.' y.T A c.v./.v.s : ",
"b J x $.7 7 F ^.%X.Xn.3 ,.Q.l.2.O.1 ) J +.=.e.0.a.Z s.M..X*.f = ",
"a H :.S 0 0 v M M 2   S ^.^.^.C.g.O.T ( Y p.} G.T +.@.V.1.; h O ",
"; B H j.0 m q Z J { +.h.W.n.M.V.W. Xn.c <.#./ D.c ;.B = & b f . ",
"% a P m.R 0 @.q Y k.M.C.C.B.V.!.XX!.a S *.0 J.L., ,.d ; a g ; @ ",
"% & 1 T j.m Z *.m a +.v.^.(.[.(.<.; B >.*.g 3 2 c 2.b & 1 & . * ",
"* 1 & 1 +.g.M S u.S q a Y $.#.3 3 S <.g.2.O.B Y $.g.A % @ o ; & ",
"o b U k t Y y.q S M.1.Z x l a S $.1.g.x.x.k.f.k.a.c.b @ < A B o ",
"& Y [ 8.M - h *.3 S !.M.a.u.g.s.j.c.c.x.x.b.~.c.1.i.; < #.+.A & ",
": F Z.E.A.N - n T < S Q./.V.v.M.N.B.B.b.v.C.^.O.=.V & Y u.<.Y ; ",
"$ :.$XW P.J.- y n A < 3 g.Q.!.C.C.C.C.W.^./.$.l 1.y % *.s.y.Y : ",
": } S.9.@XP.a = f n V l & a #.c.W.^.!.M.2.c q s.P : & -.a.u.Y t ",
"a Z & $ ~ 6.c : = f h n S M 3 < < 3 < ; 1 Y s.T y - & u.1.<.P t ",
"; *.C #.1 2 ( B = & a h b I *.#.Y S @.-.y.*.n f t & 1 c.g.*.L y ",
"& y.N.^.N.B 1.k.i - & 1 a f n I Y T I L n h h t ; . Y c.c.<.L y ",
"= j.Q.N.^.g.O.W.<.p s . & 1 1 a f g b p y a t 1 . 3 <.M.k.1.L y ",
"% u.Q.V.W.^.@.v.W.a h s o % % . . & & = # = & = z y.u.C.s.2.b s ",
"& $./.!.v.|.u.W.v.= n i & S Y B c c , x c 8 R &.q.h.C.Q.,.u.g s ",
"a g *.(.}.}.S !.+.y f @ +.s.1.j.c.` F.7. .T. .} ] #./.k.#.u.s s ",
"s V A S *.S >.Q.d g : g y.*.g.M.a.Y.OXA.$X+X] ) n >.[.@.a.f.a f ",
"d g 1.u.1.g.W.f.a s t Y #.1.g.C.f.X.M N :.a B O.2.C.}.$.g.g.: f ",
"d d #.k.v.v.g.T s : a V O.h.M.^.x.m +.O.U S ( f.W.^..X$.y.v.X f ",
"g A A u.-.*.-.S t : a L @.+.u.V.^.W.W.{.{.^.(.|.}.XX{.m /.s.X y ",
"a b $.u.g.g.$.1 y = a V <.a.1.<.2.v.W.B.g.s.l.v.n.N.,.C.j.. i t ",
"1 s +.u.<.B = f t % f L B #.$.-.#.Y A Z B S @.<.1.;.g.V   1 h : ",
"; s a a ; y h g % % y n h y t 1 1 a a a a a a a d a = O a f y O ",
"; ; y s f f t X % * @ = t a s p p p p p a a y t - = ; : - = . * "
};
