/* XPM */
static char *rock11683883995[] = {
/* columns rows colors chars-per-pixel */
"32 32 14 1 ",
"  c None",
". c #2D2A27",
"X c #453C33",
"o c #653635",
"O c #605828",
"+ c #7A4B37",
"@ c #645341",
"# c #756149",
"$ c #907755",
"% c #A96742",
"& c #888028",
"* c #D5864F",
"= c #FCB267",
"- c #FCE7A8",
/* pixels */
"O                               ",
"#o%*==*%+++%****o+++++++++o*==**",
".%*=-=**%+%**===*%o+++%%+**====*",
".%**-==**%%*-===**++++%****====*",
"X%%*=-==*%%*-====*%++%%****=====",
"X%%%*===**++***==*%%+%%****=====",
"X%%%%*****++%*****%%o+%%****====",
"X%+%%****%+%%%%****%o++%%*%*****",
"X%++%%%**o+**%**==**%o++%%%%**%*",
".o++%%%%o%**=**=--==*%+++++%*%%%",
".oo++%%+o%*======-==*%+++++%*%%%",
".oo+++%o+**--======**%%++%%***%%",
".ooo++%o%%%*-==**==*%%*o%%%***%%",
"#oo***%%o+%%*******=%+o+%%*===*%",
"#oo==**%oo%%%%%**%%**+o++%*===**",
"$%====*%o%%%=*%%%%%=%%+++%**===*",
"@%-===*%o+%**=-**%+=*%+++%%**==*",
"@%-===*%oo%**=====++%%+++%%**%%%",
"X%*-==%%o+%%***=***+*=+%*+%%%%%%",
".%%**%%+o+%%****=--+%=o%*+++%%%%",
"X%%%%%++o+%%*%***==***o%%*++%%%%",
"X%%%%%++o++%%%%**%+*==o%%%*+%%%%",
"@%%%%++ooo++%%+%%%++**++%%%+%*%%",
"#%%%%+oo++o+oo++++++*=++%%+%%**%",
"$+%%%+o%+%%+oo+o++%=-*+++++%==**",
"#++%%+o++%**++%%+%%==*+++++%%=**",
".++%%oo++%%*+o%%%%%*=%+%*++%%%=*",
"X++%%o%++%%*++%%%%=**%+%**++%%%%",
".++%%+%++%%**++%%**=*%+%%**+%%%%",
".+++%o%++%%%%oo+%%*%%++%%%*++%%%",
"&+++oo%++%%%%+o+%%%%==++%%%*++++",
"&++oooo%++%%+o+++%%+%%o+++%%++++"
};
